<svg width="357" height="156" viewBox="0 0 357 156" fill="none" xmlns="http://www.w3.org/2000/svg">
<path d="M29.1103 54.115C29.1103 56.835 28.5153 60.32 26.9853 61H39.9903C38.4603 60.32 37.8653 56.835 37.8653 54.115V8.385C37.8653 5.665 38.4603 2.18 39.9903 1.5H26.9853C28.5153 2.18 29.1103 5.665 29.1103 8.385V54.115ZM69.1227 43.49H98.8727V33.46C97.7677 37.455 94.7077 40.43 81.0227 40.43H79.1527V8.385C79.1527 5.665 79.7477 2.18 81.2777 1.5H69.1227C70.6527 2.18 71.2477 5.665 71.2477 8.385V37.455C71.2477 40.005 70.4827 42.895 69.1227 43.49ZM48.4677 61H85.1877V50.97C84.0827 54.965 81.0227 57.94 67.3377 57.94H59.3477V8.385C59.3477 5.665 59.9427 2.18 61.4727 1.5H48.4677C49.9977 2.18 50.5927 5.665 50.5927 8.385V54.965C50.5927 57.515 49.8277 60.405 48.4677 61ZM143.39 54.965C143.73 56.07 143.985 57.345 143.985 58.365C143.985 59.64 143.645 60.66 142.965 61H156.82C155.46 60.405 153.845 57.345 152.995 54.965L132.255 8.98C131.66 7.705 131.32 6.175 131.32 4.9C131.32 3.455 131.745 2.18 132.85 1.5H121.545C122.565 2.265 122.99 3.54 122.99 5.07C122.99 6.345 122.65 7.705 122.055 9.065L101.4 54.965C100.38 57.26 98.0851 60.405 96.7251 61H107.18C106.245 60.575 105.48 58.875 105.48 57.175C105.48 56.41 105.565 55.645 105.905 54.965L111.855 41.705H137.44L143.39 54.965ZM124.605 13.145L136.08 38.645H113.215L124.605 13.145ZM169.426 54.115V4.56H178.776C189.401 4.56 193.566 11.105 193.566 17.565C193.566 23.855 189.656 29.975 183.876 29.975C180.816 29.975 178.351 27.85 178.351 24.79C176.736 26.32 175.801 28.36 175.801 30.74C175.801 33.12 176.736 35.075 178.351 36.605C178.351 33.63 180.816 31.505 183.876 31.505C189.656 31.505 192.461 35.67 192.461 43.405V54.115C192.461 56.835 191.866 60.32 190.336 61H203.341C201.811 60.32 201.216 56.835 201.216 54.115V47.23C201.216 38.815 196.881 32.525 190.506 30.74C197.476 29.04 201.556 23.175 201.556 17.14C201.556 9.405 194.926 1.5 178.861 1.5H158.546C160.076 2.18 160.671 5.665 160.671 8.385V54.115C160.671 56.835 160.076 60.32 158.546 61H171.551C170.021 60.32 169.426 56.835 169.426 54.115ZM212.285 54.115C212.285 56.835 211.69 60.32 210.16 61H223.165C221.635 60.32 221.04 56.835 221.04 54.115V8.385C221.04 5.665 221.635 2.18 223.165 1.5H210.16C211.69 2.18 212.285 5.665 212.285 8.385V54.115ZM246.263 52.67C247.113 53.69 247.538 55.305 247.538 56.92C247.538 58.96 246.858 61.085 245.668 61.85H256.973C255.868 61 255.188 58.875 255.188 56.75C255.188 55.22 255.613 53.605 256.463 52.585L275.333 30.57L257.228 9.83C256.378 8.895 255.953 7.28 255.953 5.58C255.953 3.54 256.633 1.415 257.823 0.649997H246.518C247.623 1.5 248.303 3.625 248.303 5.75C248.303 7.365 247.878 8.895 247.028 9.915L228.243 31.93L246.263 52.67ZM236.573 30.23L250.683 13.655L267.173 32.61L253.063 49.185L236.573 30.23ZM330.16 54.115V8.385C330.16 5.665 330.755 2.18 332.285 1.5H323.105C324.635 2.18 325.23 5.665 325.23 8.385V48.08L292.76 8.385C292.76 5.665 293.355 2.18 294.885 1.5H280.435C281.965 2.18 282.56 5.665 282.56 8.385V54.115C282.56 56.835 281.965 60.32 280.435 61H289.615C288.085 60.32 287.49 56.835 287.49 54.115V14.42L319.96 54.115C319.96 56.835 319.365 60.32 317.835 61H332.285C330.755 60.32 330.16 56.835 330.16 54.115ZM39.9491 142.92C41.6491 142.92 42.6691 141.475 42.6691 140.03C42.6691 138.33 41.1391 137.225 39.6941 137.225C35.9541 137.225 33.4891 140.795 33.4891 144.79C33.4891 151.845 39.3541 155.585 46.0691 155.585C54.5691 155.585 64.2591 149.465 64.2591 136.12C64.2591 131.785 63.3241 126.26 61.1991 120.31C60.6891 118.525 60.3491 116.825 60.3491 115.38C60.3491 112.915 61.2841 110.96 64.0891 110.11H49.3841C52.9541 111.13 55.9291 114.36 55.9291 117.675C55.9291 124.9 41.9041 129.235 35.3591 129.235C22.2691 129.235 9.85909 119.715 9.85909 100.25C9.85909 84.525 15.2141 70.755 35.1891 70.755C46.2391 70.755 54.3141 76.79 58.4791 83.76V74.41C51.8491 70.5 43.5191 68.545 35.1891 68.545C13.0891 68.545 0.509088 82.825 0.509088 100.25C0.509088 119.63 16.7441 131.87 33.4891 131.87C41.1391 131.87 48.9591 129.32 55.3341 123.625C58.1391 128.725 59.4141 134.25 59.4141 138.33C59.4141 148.7 52.3591 153.205 45.9841 153.205C40.5441 153.205 35.6141 150.06 35.6141 144.62C35.6141 143.175 36.0391 141.815 36.8891 140.54C37.1441 141.985 38.5041 142.92 39.9491 142.92ZM68.0907 100.25C68.0907 116.655 81.0957 130.935 98.4357 130.935C115.691 130.935 128.781 116.655 128.781 100.25C128.781 83.845 115.691 69.65 98.4357 69.65C81.0957 69.65 68.0907 83.845 68.0907 100.25ZM76.9307 100.25C76.9307 83.42 83.9857 70.415 98.4357 70.415C112.886 70.415 119.941 83.42 119.941 100.25C119.941 117.08 112.886 130.17 98.4357 130.17C84.0707 130.17 76.9307 117.08 76.9307 100.25ZM98.6057 121.245C98.6057 117.59 100.221 97.36 105.066 95.83V95.66C100.731 94.895 98.6057 86.31 98.6057 81.975H98.2657C98.2657 86.31 96.1407 94.895 91.8057 95.66V95.83C96.6507 97.19 98.2657 117.59 98.2657 121.245H98.6057ZM143.943 123.115V73.56H153.293C163.918 73.56 168.083 80.105 168.083 86.565C168.083 92.855 164.173 98.975 158.393 98.975C155.333 98.975 152.868 96.85 152.868 93.79C151.253 95.32 150.318 97.36 150.318 99.74C150.318 102.12 151.253 104.075 152.868 105.605C152.868 102.63 155.333 100.505 158.393 100.505C164.173 100.505 166.978 104.67 166.978 112.405V123.115C166.978 125.835 166.383 129.32 164.853 130H177.858C176.328 129.32 175.733 125.835 175.733 123.115V116.23C175.733 107.815 171.398 101.525 165.023 99.74C171.993 98.04 176.073 92.175 176.073 86.14C176.073 78.405 169.443 70.5 153.378 70.5H133.063C134.593 71.18 135.188 74.665 135.188 77.385V123.115C135.188 125.835 134.593 129.32 133.063 130H146.068C144.538 129.32 143.943 125.835 143.943 123.115ZM184.677 70.5C186.207 71.18 186.802 74.665 186.802 77.385V123.115C186.802 125.835 186.207 129.32 184.677 130H206.012C231.257 130 244.007 117.675 244.007 100.25C244.007 82.825 231.257 70.5 205.757 70.5H184.677ZM205.842 73.56C229.132 73.56 234.657 84.525 234.657 100.25C234.657 115.975 229.132 126.94 206.012 126.94H195.557V73.56H205.842ZM247.437 100.25C247.437 117.675 260.017 131.87 278.717 131.87C297.417 131.87 310.167 117.675 310.167 100.25C310.167 82.825 297.417 68.545 278.717 68.545C260.017 68.545 247.437 82.825 247.437 100.25ZM256.787 100.25C256.787 84.525 262.142 71.605 278.717 71.605C295.292 71.605 300.817 84.525 300.817 100.25C300.817 115.975 295.292 128.81 278.717 128.81C262.142 128.81 256.787 115.975 256.787 100.25ZM318.253 77.385V123.115C318.253 125.835 317.658 129.32 316.128 130H329.133C327.603 129.32 327.008 125.835 327.008 123.115V94.725L354.038 119.375V77.385C354.038 74.665 354.633 71.18 356.163 70.5H346.558C348.088 71.18 348.683 74.665 348.683 77.385V105.52L327.008 85.715V77.385C327.008 74.665 327.603 71.18 329.133 70.5H316.128C317.658 71.18 318.253 74.665 318.253 77.385Z" fill="white"/>
</svg>
