<svg width="65" height="29" viewBox="0 0 65 29" fill="none" xmlns="http://www.w3.org/2000/svg">
<path d="M5.22721 9.84348C5.22721 10.3443 5.11846 10.9859 4.83884 11.1111H7.21565C6.93603 10.9859 6.82729 10.3443 6.82729 9.84348V1.4241C6.82729 0.923315 6.93603 0.281689 7.21565 0.156494H4.83884C5.11846 0.281689 5.22721 0.923315 5.22721 1.4241V9.84348Z" fill="white"/>
<path d="M12.54 7.8873H17.9771V6.04067C17.7752 6.77619 17.2159 7.32392 14.7148 7.32392H14.3731V1.4241C14.3731 0.923315 14.4818 0.281689 14.7614 0.156494H12.54C12.8196 0.281689 12.9283 0.923315 12.9283 1.4241V6.77619C12.9283 7.24568 12.7885 7.77776 12.54 7.8873ZM8.765 11.1111H15.476V9.26445C15.2741 9.99997 14.7148 10.5477 12.2137 10.5477H10.7535V1.4241C10.7535 0.923315 10.8622 0.281689 11.1418 0.156494H8.765C9.04463 0.281689 9.15337 0.923315 9.15337 1.4241V9.99997C9.15337 10.4695 9.01356 11.0015 8.765 11.1111Z" fill="white"/>
<path d="M26.1132 9.99997C26.1753 10.2034 26.222 10.4382 26.222 10.6259C26.222 10.8607 26.1598 11.0485 26.0355 11.1111H28.5677C28.3191 11.0015 28.024 10.4382 27.8686 9.99997L24.0782 1.53364C23.9694 1.2989 23.9073 1.01721 23.9073 0.782471C23.9073 0.51643 23.9849 0.281689 24.1869 0.156494H22.1208C22.3072 0.297339 22.3849 0.53208 22.3849 0.813769C22.3849 1.04851 22.3227 1.2989 22.214 1.54929L18.439 9.99997C18.2526 10.4225 17.8332 11.0015 17.5846 11.1111H19.4954C19.3245 11.0328 19.1847 10.7198 19.1847 10.4069C19.1847 10.266 19.2002 10.1252 19.2624 9.99997L20.3498 7.55866H25.0258L26.1132 9.99997ZM22.68 2.30046L24.7772 6.99529H20.5984L22.68 2.30046Z" fill="white"/>
<path d="M30.8716 9.84348V0.719873H32.5804C34.5223 0.719873 35.2835 1.92488 35.2835 3.11423C35.2835 4.27229 34.5689 5.39905 33.5125 5.39905C32.9532 5.39905 32.5027 5.00781 32.5027 4.44443C32.2076 4.72612 32.0367 5.10171 32.0367 5.53989C32.0367 5.97807 32.2076 6.33801 32.5027 6.6197C32.5027 6.07197 32.9532 5.68074 33.5125 5.68074C34.5689 5.68074 35.0815 6.44756 35.0815 7.87165V9.84348C35.0815 10.3443 34.9728 10.9859 34.6931 11.1111H37.07C36.7903 10.9859 36.6816 10.3443 36.6816 9.84348V8.57588C36.6816 7.02658 35.8893 5.86853 34.7242 5.53989C35.9981 5.2269 36.7437 4.14709 36.7437 3.03599C36.7437 1.61189 35.532 0.156494 32.5959 0.156494H28.8831C29.1628 0.281689 29.2715 0.923315 29.2715 1.4241V9.84348C29.2715 10.3443 29.1628 10.9859 28.8831 11.1111H31.26C30.9803 10.9859 30.8716 10.3443 30.8716 9.84348Z" fill="white"/>
<path d="M38.7046 9.84348C38.7046 10.3443 38.5959 10.9859 38.3162 11.1111H40.6931C40.4134 10.9859 40.3047 10.3443 40.3047 9.84348V1.4241C40.3047 0.923315 40.4134 0.281689 40.6931 0.156494H38.3162C38.5959 0.281689 38.7046 0.923315 38.7046 1.4241V9.84348Z" fill="white"/>
<path d="M44.9144 9.57744C45.0697 9.76523 45.1474 10.0626 45.1474 10.3599C45.1474 10.7355 45.0231 11.1267 44.8057 11.2676H46.8718C46.6698 11.1111 46.5455 10.7198 46.5455 10.3286C46.5455 10.0469 46.6232 9.74958 46.7786 9.56179L50.2273 5.50859L46.9184 1.69014C46.763 1.51799 46.6854 1.22065 46.6854 0.907666C46.6854 0.532079 46.8096 0.140845 47.0271 0H44.961C45.163 0.156494 45.2872 0.54773 45.2872 0.938965C45.2872 1.2363 45.2096 1.51799 45.0542 1.70579L41.621 5.75898L44.9144 9.57744ZM43.1434 5.44599L45.7222 2.39436L48.7359 5.88418L46.1572 8.93581L43.1434 5.44599Z" fill="white"/>
<path d="M60.2476 9.84348V1.4241C60.2476 0.923315 60.3563 0.281689 60.6359 0.156494H58.9582C59.2378 0.281689 59.3466 0.923315 59.3466 1.4241V8.73237L53.4123 1.4241C53.4123 0.923315 53.521 0.281689 53.8006 0.156494H51.1597C51.4394 0.281689 51.5481 0.923315 51.5481 1.4241V9.84348C51.5481 10.3443 51.4394 10.9859 51.1597 11.1111H52.8375C52.5579 10.9859 52.4491 10.3443 52.4491 9.84348V2.5352L58.3834 9.84348C58.3834 10.3443 58.2747 10.9859 57.995 11.1111H60.6359C60.3563 10.9859 60.2476 10.3443 60.2476 9.84348Z" fill="white"/>
<path d="M7.20813 26.6682C7.51883 26.6682 7.70524 26.4022 7.70524 26.1362C7.70524 25.8232 7.42562 25.6197 7.16153 25.6197C6.478 25.6197 6.02749 26.277 6.02749 27.0125C6.02749 28.3114 7.09939 29 8.32663 29C9.88011 29 11.6511 27.8732 11.6511 25.4163C11.6511 24.6182 11.4802 23.601 11.0918 22.5055C10.9986 22.1769 10.9365 21.8639 10.9365 21.5978C10.9365 21.144 11.1074 20.7841 11.62 20.6276H8.93249C9.58495 20.8154 10.1287 21.41 10.1287 22.0204C10.1287 23.3506 7.56543 24.1487 6.36925 24.1487C3.9769 24.1487 1.70882 22.3959 1.70882 18.8122C1.70882 15.9171 2.68751 13.3819 6.33818 13.3819C8.3577 13.3819 9.83351 14.493 10.5947 15.7762V14.0548C9.383 13.3349 7.86059 12.975 6.33818 12.975C2.29915 12.975 0 15.6041 0 18.8122C0 22.3803 2.96714 24.6338 6.02749 24.6338C7.42562 24.6338 8.85482 24.1643 10.0199 23.1158C10.5326 24.0548 10.7656 25.072 10.7656 25.8232C10.7656 27.7324 9.47621 28.5618 8.3111 28.5618C7.31687 28.5618 6.41586 27.9828 6.41586 26.9812C6.41586 26.7152 6.49353 26.4648 6.64888 26.2301C6.69548 26.4961 6.94404 26.6682 7.20813 26.6682Z" fill="white"/>
<path d="M12.3514 18.8122C12.3514 21.8326 14.7282 24.4617 17.8973 24.4617C21.0508 24.4617 23.4432 21.8326 23.4432 18.8122C23.4432 15.7919 21.0508 13.1784 17.8973 13.1784C14.7282 13.1784 12.3514 15.7919 12.3514 18.8122ZM13.967 18.8122C13.967 15.7137 15.2564 13.3193 17.8973 13.3193C20.5382 13.3193 21.8276 15.7137 21.8276 18.8122C21.8276 21.9108 20.5382 24.3208 17.8973 24.3208C15.2719 24.3208 13.967 21.9108 13.967 18.8122ZM17.9283 22.6776C17.9283 22.0047 18.2235 18.2802 19.109 17.9985V17.9672C18.3167 17.8263 17.9283 16.2457 17.9283 15.4476H17.8662C17.8662 16.2457 17.4778 17.8263 16.6856 17.9672V17.9985C17.571 18.2489 17.8662 22.0047 17.8662 22.6776H17.9283Z" fill="white"/>
<path d="M26.2142 23.0219V13.8983H27.923C29.8649 13.8983 30.6261 15.1033 30.6261 16.2927C30.6261 17.4507 29.9115 18.5775 28.8551 18.5775C28.2958 18.5775 27.8453 18.1863 27.8453 17.6229C27.5502 17.9046 27.3793 18.2802 27.3793 18.7183C27.3793 19.1565 27.5502 19.5165 27.8453 19.7981C27.8453 19.2504 28.2958 18.8592 28.8551 18.8592C29.9115 18.8592 30.4241 19.626 30.4241 21.0501V23.0219C30.4241 23.5227 30.3154 24.1643 30.0357 24.2895H32.4126C32.1329 24.1643 32.0242 23.5227 32.0242 23.0219V21.7543C32.0242 20.205 31.2319 19.047 30.0668 18.7183C31.3407 18.4053 32.0863 17.3255 32.0863 16.2144C32.0863 14.7903 30.8746 13.3349 27.9385 13.3349H24.2257C24.5054 13.4601 24.6141 14.1018 24.6141 14.6025V23.0219C24.6141 23.5227 24.5054 24.1643 24.2257 24.2895H26.6026C26.3229 24.1643 26.2142 23.5227 26.2142 23.0219Z" fill="white"/>
<path d="M33.6589 13.3349C33.9385 13.4601 34.0472 14.1018 34.0472 14.6025V23.0219C34.0472 23.5227 33.9385 24.1643 33.6589 24.2895H37.5581C42.1719 24.2895 44.5021 22.0204 44.5021 18.8122C44.5021 15.6041 42.1719 13.3349 37.5115 13.3349H33.6589ZM37.527 13.8983C41.7835 13.8983 42.7933 15.9171 42.7933 18.8122C42.7933 21.7074 41.7835 23.7261 37.5581 23.7261H35.6473V13.8983H37.527Z" fill="white"/>
<path d="M45.1291 18.8122C45.1291 22.0204 47.4282 24.6338 50.8459 24.6338C54.2635 24.6338 56.5937 22.0204 56.5937 18.8122C56.5937 15.6041 54.2635 12.975 50.8459 12.975C47.4282 12.975 45.1291 15.6041 45.1291 18.8122ZM46.8379 18.8122C46.8379 15.9171 47.8166 13.5384 50.8459 13.5384C53.8752 13.5384 54.8849 15.9171 54.8849 18.8122C54.8849 21.7074 53.8752 24.0704 50.8459 24.0704C47.8166 24.0704 46.8379 21.7074 46.8379 18.8122Z" fill="white"/>
<path d="M58.0715 14.6025V23.0219C58.0715 23.5227 57.9628 24.1643 57.6831 24.2895H60.0599C59.7803 24.1643 59.6716 23.5227 59.6716 23.0219V17.795L64.6116 22.3334V14.6025C64.6116 14.1018 64.7204 13.4601 65 13.3349H63.2446C63.5242 13.4601 63.6329 14.1018 63.6329 14.6025V19.7825L59.6716 16.1362V14.6025C59.6716 14.1018 59.7803 13.4601 60.0599 13.3349H57.6831C57.9628 13.4601 58.0715 14.1018 58.0715 14.6025Z" fill="white"/>
</svg>
