<svg  viewBox="0 0 1562 200" preserveAspectRatio="xMinYMin none" fill="none" xmlns="http://www.w3.org/2000/svg">
<path d="M5.67997 125.286C5.67997 131.494 4.32197 139.448 0.829969 141H30.512C27.02 139.448 25.662 131.494 25.662 125.286V20.914C25.662 14.706 27.02 6.75199 30.512 5.19999H0.829969C4.32197 6.75199 5.67997 14.706 5.67997 20.914V125.286ZM97.0024 101.036H164.902V78.144C162.38 87.262 155.396 94.052 124.162 94.052H119.894V20.914C119.894 14.706 121.252 6.75199 124.744 5.19999H97.0024C100.494 6.75199 101.852 14.706 101.852 20.914V87.262C101.852 93.082 100.106 99.678 97.0024 101.036ZM49.8604 141H133.668V118.108C131.146 127.226 124.162 134.016 92.9284 134.016H74.6924V20.914C74.6924 14.706 76.0504 6.75199 79.5424 5.19999H49.8604C53.3524 6.75199 54.7104 14.706 54.7104 20.914V127.226C54.7104 133.046 52.9644 139.642 49.8604 141ZM266.507 127.226C267.283 129.748 267.865 132.658 267.865 134.986C267.865 137.896 267.089 140.224 265.537 141H297.159C294.055 139.642 290.369 132.658 288.429 127.226L241.093 22.272C239.735 19.362 238.959 15.87 238.959 12.96C238.959 9.66199 239.929 6.75199 242.451 5.19999H216.649C218.977 6.94599 219.947 9.85599 219.947 13.348C219.947 16.258 219.171 19.362 217.813 22.466L170.671 127.226C168.343 132.464 163.105 139.642 160.001 141H183.863C181.729 140.03 179.983 136.15 179.983 132.27C179.983 130.524 180.177 128.778 180.953 127.226L194.533 96.962H252.927L266.507 127.226ZM223.633 31.778L249.823 89.978H197.637L223.633 31.778ZM325.93 125.286V12.184H347.27C371.52 12.184 381.026 27.122 381.026 41.866C381.026 56.222 372.102 70.19 358.91 70.19C351.926 70.19 346.3 65.34 346.3 58.356C342.614 61.848 340.48 66.504 340.48 71.936C340.48 77.368 342.614 81.83 346.3 85.322C346.3 78.532 351.926 73.682 358.91 73.682C372.102 73.682 378.504 83.188 378.504 100.842V125.286C378.504 131.494 377.146 139.448 373.654 141H403.336C399.844 139.448 398.486 131.494 398.486 125.286V109.572C398.486 90.366 388.592 76.01 374.042 71.936C389.95 68.056 399.262 54.67 399.262 40.896C399.262 23.242 384.13 5.19999 347.464 5.19999H301.098C304.59 6.75199 305.948 14.706 305.948 20.914V125.286C305.948 131.494 304.59 139.448 301.098 141H330.78C327.288 139.448 325.93 131.494 325.93 125.286ZM423.75 125.286C423.75 131.494 422.392 139.448 418.9 141H448.582C445.09 139.448 443.732 131.494 443.732 125.286V20.914C443.732 14.706 445.09 6.75199 448.582 5.19999H418.9C422.392 6.75199 423.75 14.706 423.75 20.914V125.286ZM501.298 121.988C503.238 124.316 504.208 128.002 504.208 131.688C504.208 136.344 502.656 141.194 499.94 142.94H525.742C523.22 141 521.668 136.15 521.668 131.3C521.668 127.808 522.638 124.122 524.578 121.794L567.646 71.548L526.324 24.212C524.384 22.078 523.414 18.392 523.414 14.512C523.414 9.85599 524.966 5.00599 527.682 3.25999H501.88C504.402 5.19999 505.954 10.05 505.954 14.9C505.954 18.586 504.984 22.078 503.044 24.406L460.17 74.652L501.298 121.988ZM479.182 70.772L511.386 32.942L549.022 76.204L516.818 114.034L479.182 70.772ZM692.781 125.286V20.914C692.781 14.706 694.139 6.75199 697.631 5.19999H676.679C680.171 6.75199 681.529 14.706 681.529 20.914V111.512L607.421 20.914C607.421 14.706 608.779 6.75199 612.271 5.19999H579.291C582.783 6.75199 584.141 14.706 584.141 20.914V125.286C584.141 131.494 582.783 139.448 579.291 141H600.243C596.751 139.448 595.393 131.494 595.393 125.286V34.688L669.501 125.286C669.501 131.494 668.143 139.448 664.651 141H697.631C694.139 139.448 692.781 131.494 692.781 125.286ZM843.915 170.488C847.795 170.488 850.123 167.19 850.123 163.892C850.123 160.012 846.631 157.49 843.333 157.49C834.797 157.49 829.171 165.638 829.171 174.756C829.171 190.858 842.557 199.394 857.883 199.394C877.283 199.394 899.399 185.426 899.399 154.968C899.399 145.074 897.265 132.464 892.415 118.884C891.251 114.81 890.475 110.93 890.475 107.632C890.475 102.006 892.609 97.544 899.011 95.604H865.449C873.597 97.932 880.387 105.304 880.387 112.87C880.387 129.36 848.377 139.254 833.439 139.254C803.563 139.254 775.239 117.526 775.239 73.1C775.239 37.21 787.461 5.78199 833.051 5.78199C858.271 5.78199 876.701 19.556 886.207 35.464V14.124C871.075 5.19999 852.063 0.73799 833.051 0.73799C782.611 0.73799 753.899 33.33 753.899 73.1C753.899 117.332 790.953 145.268 829.171 145.268C846.631 145.268 864.479 139.448 879.029 126.45C885.431 138.09 888.341 150.7 888.341 160.012C888.341 183.68 872.239 193.962 857.689 193.962C845.273 193.962 834.021 186.784 834.021 174.368C834.021 171.07 834.991 167.966 836.931 165.056C837.513 168.354 840.617 170.488 843.915 170.488ZM904.264 73.1C904.264 110.542 933.946 143.134 973.522 143.134C1012.9 143.134 1042.78 110.542 1042.78 73.1C1042.78 35.658 1012.9 3.25999 973.522 3.25999C933.946 3.25999 904.264 35.658 904.264 73.1ZM924.44 73.1C924.44 34.688 940.542 5.00599 973.522 5.00599C1006.5 5.00599 1022.6 34.688 1022.6 73.1C1022.6 111.512 1006.5 141.388 973.522 141.388C940.736 141.388 924.44 111.512 924.44 73.1ZM973.91 121.018C973.91 112.676 977.596 66.504 988.654 63.012V62.624C978.76 60.878 973.91 41.284 973.91 31.39H973.134C973.134 41.284 968.284 60.878 958.39 62.624V63.012C969.448 66.116 973.134 112.676 973.134 121.018H973.91ZM1077.38 125.286V12.184H1098.72C1122.97 12.184 1132.48 27.122 1132.48 41.866C1132.48 56.222 1123.56 70.19 1110.36 70.19C1103.38 70.19 1097.75 65.34 1097.75 58.356C1094.07 61.848 1091.93 66.504 1091.93 71.936C1091.93 77.368 1094.07 81.83 1097.75 85.322C1097.75 78.532 1103.38 73.682 1110.36 73.682C1123.56 73.682 1129.96 83.188 1129.96 100.842V125.286C1129.96 131.494 1128.6 139.448 1125.11 141H1154.79C1151.3 139.448 1149.94 131.494 1149.94 125.286V109.572C1149.94 90.366 1140.05 76.01 1125.5 71.936C1141.4 68.056 1150.72 54.67 1150.72 40.896C1150.72 23.242 1135.58 5.19999 1098.92 5.19999H1052.55C1056.04 6.75199 1057.4 14.706 1057.4 20.914V125.286C1057.4 131.494 1056.04 139.448 1052.55 141H1082.23C1078.74 139.448 1077.38 131.494 1077.38 125.286ZM1170.35 5.19999C1173.85 6.75199 1175.2 14.706 1175.2 20.914V125.286C1175.2 131.494 1173.85 139.448 1170.35 141H1219.05C1276.67 141 1305.77 112.87 1305.77 73.1C1305.77 33.33 1276.67 5.19999 1218.47 5.19999H1170.35ZM1218.66 12.184C1271.82 12.184 1284.43 37.21 1284.43 73.1C1284.43 108.99 1271.82 134.016 1219.05 134.016H1195.19V12.184H1218.66ZM1313.6 73.1C1313.6 112.87 1342.31 145.268 1384.99 145.268C1427.67 145.268 1456.77 112.87 1456.77 73.1C1456.77 33.33 1427.67 0.73799 1384.99 0.73799C1342.31 0.73799 1313.6 33.33 1313.6 73.1ZM1334.94 73.1C1334.94 37.21 1347.16 7.72199 1384.99 7.72199C1422.82 7.72199 1435.43 37.21 1435.43 73.1C1435.43 108.99 1422.82 138.284 1384.99 138.284C1347.16 138.284 1334.94 108.99 1334.94 73.1ZM1475.22 20.914V125.286C1475.22 131.494 1473.86 139.448 1470.37 141H1500.05C1496.56 139.448 1495.2 131.494 1495.2 125.286V60.49L1556.9 116.75V20.914C1556.9 14.706 1558.25 6.75199 1561.75 5.19999H1539.82C1543.32 6.75199 1544.67 14.706 1544.67 20.914V85.128L1495.2 39.926V20.914C1495.2 14.706 1496.56 6.75199 1500.05 5.19999H1470.37C1473.86 6.75199 1475.22 14.706 1475.22 20.914Z" fill="white"/>
</svg>
